<?xml version="1.0" standalone="no"?><svg xmlns="http://www.w3.org/2000/svg" viewBox="0 0 1440 320"><path fill="#0099ff" fill-opacity="1" d="M0,128L30,128C60,128,120,128,180,133.3C240,139,300,149,360,144C420,139,480,117,540,133.3C600,149,660,203,720,218.7C780,235,840,213,900,208C960,203,1020,213,1080,234.7C1140,256,1200,288,1260,261.3C1320,235,1380,149,1410,106.7L1440,64L1440,320L1410,320C1380,320,1320,320,1260,320C1200,320,1140,320,1080,320C1020,320,960,320,900,320C840,320,780,320,720,320C660,320,600,320,540,320C480,320,420,320,360,320C300,320,240,320,180,320C120,320,60,320,30,320L0,320Z"></path></svg>